<svg width="142" height="138" viewBox="0 0 142 138" fill="none" xmlns="http://www.w3.org/2000/svg">
<path d="M71.5263 98.8278C94.2668 106.893 115.519 119.468 141.782 137.895L116.332 88.3193C96.2977 90.738 86.7376 93.1922 71.5263 98.8278Z" fill="white" fill-opacity="0.15"/>
<path fill-rule="evenodd" clip-rule="evenodd" d="M0.217773 137.896L70.4989 0.989258L109.659 78.2128C121.704 79.5143 128.676 81.216 141.782 86.9838C82.4913 88.7539 50.5594 102.573 0.217773 137.896ZM49.3168 83.7644L70.4737 42.9366L88.3307 76.4503C73.3636 76.9549 64.7853 78.6502 49.3168 83.7644Z" fill="white"/>
<path d="M123.328 103.608L141.782 137.896C124.06 125.642 113.881 119.045 94.6356 108.587C103.421 103.608 113.593 101.912 123.328 103.608Z" fill="white"/>
</svg>